<svg id="Layer_1" data-name="Layer 1" xmlns="http://www.w3.org/2000/svg" viewBox="0 0 238 238"><defs><style>.cls-1{fill:#fff;}</style></defs><title>checkbox</title><rect class="cls-1" x="5" y="5" width="228" height="228" rx="45" ry="45"/><path d="M319,141a40,40,0,0,1,40,40V319a40,40,0,0,1-40,40H181a40,40,0,0,1-40-40V181a40,40,0,0,1,40-40H319m0-10H181a50.15,50.15,0,0,0-50,50V319a50.15,50.15,0,0,0,50,50H319a50.15,50.15,0,0,0,50-50V181a50.15,50.15,0,0,0-50-50Z" transform="translate(-131 -131)"/></svg>