<svg id="Calque_1" data-name="Calque 1" xmlns="http://www.w3.org/2000/svg" viewBox="0 0 25 25">
<defs>
<style>.cls-1{fill:transparent;}.cls-2{fill:#129ae4;}.cls-3{fill:#23cc43;}</style>
</defs>
<title>logo_light_bg_mini</title>

<rect class="cls-1" width="25" height="25"/>
<path class="cls-2" d="M15.69,2.32a6.52,6.52,0,0,0-6,4.27l0,.06a1.16,1.16,0,0,1-2.23-.54.75.75,0,0,1,0-.26h0s0,0,0,0v0a.49.49,0,0,0,0-.11l0-.08a6.1,6.1,0,0,1,6.18-3.75A5.85,5.85,0,0,1,15.69,2.32Z"/>
<path class="cls-3" d="M20.21,10.15A3.77,3.77,0,0,0,13.08,7.9h0a1.17,1.17,0,0,1-2.21-.7A1.4,1.4,0,0,1,11,6.91l0,0a6.1,6.1,0,1,1,4.45,8.63l-3.71-.66-2.29-.4-2.18-.38a16.23,16.23,0,0,1,2.37-.73,17.26,17.26,0,0,1,1.91-.3l.52,0a16.21,16.21,0,0,1,3.79.21A3.77,3.77,0,0,0,20.21,10.15Z"/>
<path class="cls-3" d="M9.49,22.45a6.52,6.52,0,0,0,6-4.27l0-.06a1.17,1.17,0,0,1,2.24.54,1.09,1.09,0,0,1-.05.26h0l0,0v0a1.17,1.17,0,0,1-.05.11l0,.08A6.11,6.11,0,0,1,11.42,23,6,6,0,0,1,9.49,22.45Z"/>
<path class="cls-2" d="M5,14.62a3.77,3.77,0,0,0,7.13,2.25h0a1.15,1.15,0,0,1,1.26-.65,1.17,1.17,0,0,1,1,1.35,1,1,0,0,1-.1.29l0,0A6.1,6.1,0,1,1,9.75,9.27l3.72.66,2.29.4,2.18.38a16.23,16.23,0,0,1-2.37.73,17.26,17.26,0,0,1-1.91.3l-.52,0a16.21,16.21,0,0,1-3.79-.21A3.76,3.76,0,0,0,5,14.62Z"/>
</svg>