<svg id="Layer_1" height="512" viewBox="0 0 128 128" width="512" xmlns="http://www.w3.org/2000/svg" data-name="Layer 1"><path d="m108.176 35.354h-24.843v-5.254h.917a1.75 1.75 0 0 0 1.75-1.746v-6.333a1.75 1.75 0 0 0 -1.75-1.75h-40.5a1.75 1.75 0 0 0 -1.75 1.75v6.333a1.75 1.75 0 0 0 1.75 1.75h.917v5.25h-24.843a7.437 7.437 0 0 0 -7.424 7.427v21.073a1.749 1.749 0 0 0 1.166 1.65l3.355 1.189v33.607a7.436 7.436 0 0 0 7.427 7.427h79.312a7.436 7.436 0 0 0 7.427-7.427v-33.607l3.355-1.189a1.749 1.749 0 0 0 1.166-1.65v-21.073a7.437 7.437 0 0 0 -7.432-7.427zm-62.676-11.583h37v2.829h-37zm2.667 6.329h31.666v5.25h-31.666zm59.416 70.2a3.931 3.931 0 0 1 -3.927 3.927h-79.312a3.931 3.931 0 0 1 -3.927-3.927v-32.367l33.736 11.955v4.369a9.847 9.847 0 1 0 19.694 0v-4.369l33.736-11.955zm-49.93-16.043v-9.306a6.347 6.347 0 0 1 12.694 0v9.306a6.347 6.347 0 1 1 -12.694 0zm54.447-21.639-38.253 13.557v-1.224a9.847 9.847 0 1 0 -19.694 0v1.224l-38.253-13.557v-19.837a3.932 3.932 0 0 1 3.928-3.927h88.352a3.932 3.932 0 0 1 3.928 3.927z"/><path d="m68.2 84.418a4.2 4.2 0 1 0 -4.2 4.2 4.208 4.208 0 0 0 4.2-4.2zm-4.906 0a.7.7 0 1 1 .7.7.7.7 0 0 1 -.694-.7z"/></svg>