<svg id="Layer_1" height="512" viewBox="0 0 128 128" width="512" xmlns="http://www.w3.org/2000/svg" data-name="Layer 1"><path d="m101.458 12.4h-67.514a1.751 1.751 0 0 0 -1.75 1.75v4.89h-5.652a1.749 1.749 0 0 0 -1.75 1.75v93.064a1.75 1.75 0 0 0 1.75 1.75h67.514a1.751 1.751 0 0 0 1.75-1.75v-4.894h5.652a1.749 1.749 0 0 0 1.75-1.75v-93.064a1.75 1.75 0 0 0 -1.75-1.746zm-9.152 99.7h-64.014v-89.56h50.791v11.473a1.75 1.75 0 0 0 1.75 1.75h11.473zm-9.723-87.085 7.248 7.248h-7.248zm17.125 80.445h-3.9v-71.447a1.754 1.754 0 0 0 -.513-1.238l-13.225-13.222a1.75 1.75 0 0 0 -1.237-.513h-45.139v-3.14h64.014z"/><path d="m81.883 39.9h-43.168a1.75 1.75 0 0 0 -1.75 1.75v12.713a1.749 1.749 0 0 0 1.75 1.75h43.168a1.749 1.749 0 0 0 1.75-1.75v-12.709a1.75 1.75 0 0 0 -1.75-1.754zm-1.75 12.709h-39.668v-9.209h39.668z"/><path d="m81.883 63.937h-43.168a1.75 1.75 0 0 0 0 3.5h43.168a1.75 1.75 0 0 0 0-3.5z"/><path d="m38.715 75.272h31.5a1.75 1.75 0 0 0 0-3.5h-31.5a1.75 1.75 0 0 0 0 3.5z"/><path d="m81.883 79.608h-43.168a1.75 1.75 0 0 0 0 3.5h43.168a1.75 1.75 0 0 0 0-3.5z"/><path d="m38.715 90.944h31.5a1.75 1.75 0 0 0 0-3.5h-31.5a1.75 1.75 0 0 0 0 3.5z"/><path d="m81.883 95.281h-43.168a1.75 1.75 0 0 0 0 3.5h43.168a1.75 1.75 0 0 0 0-3.5z"/><path d="m81.883 103.117h-11.667a1.75 1.75 0 0 0 0 3.5h11.667a1.75 1.75 0 0 0 0-3.5z"/></svg>