<svg id="Layer_1" height="512" viewBox="0 0 128 128" width="512" xmlns="http://www.w3.org/2000/svg" data-name="Layer 1"><path d="m92.117 87.45a13.752 13.752 0 0 0 .451-22.46 8.677 8.677 0 1 0 -16.379 0 13.6 13.6 0 0 0 -5.389 13.352 10.465 10.465 0 0 0 -5.051-2.354v-34.924a10.928 10.928 0 0 1 9.171 10.766 1.75 1.75 0 0 0 3.5 0 10.917 10.917 0 0 1 21.83-.274 1.75 1.75 0 0 0 3.5-.076 39.756 39.756 0 0 0 -79.5 0 1.75 1.75 0 0 0 1.712 1.779 1.715 1.715 0 0 0 1.788-1.7 10.916 10.916 0 0 1 21.761-.939c0 .056.007.111.014.166a8.77 8.77 0 0 1 .057 1.038v.019c-.01.106-.017.211-.017.32a1.751 1.751 0 0 0 1.75 1.75h.03a1.751 1.751 0 0 0 1.75-1.75c0-.081 0-.159-.01-.33a10.928 10.928 0 0 1 9.17-10.766v34.921a10.465 10.465 0 0 0 -5.055 2.354 13.777 13.777 0 1 0 -21.317 9.108 27.562 27.562 0 0 0 -19.78 26.4 1.75 1.75 0 0 0 1.75 1.75h92.294a1.75 1.75 0 0 0 1.75-1.75 27.562 27.562 0 0 0 -19.78-26.4zm-12.917-25.274a5.177 5.177 0 1 1 10.232 1.065 13.62 13.62 0 0 0 -10.111 0 5.2 5.2 0 0 1 -.121-1.065zm5.176 3.592a10.283 10.283 0 1 1 -10.276 10.283 10.295 10.295 0 0 1 10.278-10.283zm-7.742 21.677c-.782.229-1.549.5-2.307.8a10.519 10.519 0 0 0 .182-1.907c0-.245-.02-.486-.037-.727a13.932 13.932 0 0 0 2.162 1.834zm21.684-46.932a14.45 14.45 0 0 0 -20.23 2.319c-.681-7.883-2.72-19.661-8.738-26.526a36.567 36.567 0 0 1 28.968 24.207zm-59.658-3.103a14.376 14.376 0 0 0 -8.978 3.1 36.567 36.567 0 0 1 28.968-24.204c-6.01 6.856-8.05 18.614-8.736 26.494a14.377 14.377 0 0 0 -11.254-5.39zm14.872 4.516c.861-8.604 3.342-21.026 10.468-25.734 7.125 4.708 9.607 17.129 10.468 25.733a14.391 14.391 0 0 0 -20.936 0zm10.468 37.404a7.009 7.009 0 1 1 -7.009 7.009 7.017 7.017 0 0 1 7.009-7.009zm-10.327 8.915c-.758-.3-1.525-.572-2.306-.8a13.971 13.971 0 0 0 2.161-1.833c-.017.241-.037.482-.037.727a10.5 10.5 0 0 0 .182 1.906zm-20.335-12.194a10.284 10.284 0 1 1 10.284 10.283 10.295 10.295 0 0 1 -10.284-10.283zm10.284 13.783a23.944 23.944 0 0 1 12.658 3.61 10.574 10.574 0 0 0 1.077 1.029 20.533 20.533 0 0 0 -13.774 17.627h-23.917a24.051 24.051 0 0 1 23.956-22.266zm3.461 22.27a17.007 17.007 0 0 1 33.834 0zm37.334 0a20.533 20.533 0 0 0 -13.774-17.631 10.574 10.574 0 0 0 1.077-1.029 24.014 24.014 0 0 1 36.614 18.66z"/></svg>