<svg id="Layer_1" height="512" viewBox="0 0 128 128" width="512" xmlns="http://www.w3.org/2000/svg" data-name="Layer 1"><path d="m59.979 47.217v3.022a10.132 10.132 0 0 0 0 19.964v13.207a6.649 6.649 0 0 1 -4.894-6.4 1.75 1.75 0 0 0 -3.5 0 10.152 10.152 0 0 0 8.395 9.98v3.021a1.75 1.75 0 0 0 3.5 0v-3.021a10.132 10.132 0 0 0 0-19.964v-13.208a6.651 6.651 0 0 1 4.894 6.4 1.75 1.75 0 1 0 3.5 0 10.153 10.153 0 0 0 -8.394-9.983v-3.018a1.75 1.75 0 0 0 -3.5 0zm-4.893 13a6.651 6.651 0 0 1 4.894-6.4v12.806a6.651 6.651 0 0 1 -4.894-6.402zm13.288 16.791a6.65 6.65 0 0 1 -4.894 6.4v-12.8a6.65 6.65 0 0 1 4.894 6.4z"/><path d="m111.8 33.466a50.459 50.459 0 0 0 1.449-13.2 1.752 1.752 0 0 0 -1.222-1.632c-7.91-2.5-13.853-4.9-16.692-6.1a1.753 1.753 0 0 0 -1.367 0c-2.839 1.2-8.782 3.6-16.693 6.1a1.751 1.751 0 0 0 -1.221 1.632c-.022 1.034-.009 2.264.056 3.613a47.051 47.051 0 1 0 27.834 24.121 30.372 30.372 0 0 0 7.856-14.534zm-17.149-17.425c2.937 1.226 8.236 3.321 15.107 5.54a47.1 47.1 0 0 1 -1.351 11.019c-2.2 8.667-6.829 14.52-13.756 17.407a21.372 21.372 0 0 1 -6.5-4.2c-.607-.7-1.237-1.384-1.9-2.036a28.409 28.409 0 0 1 -5.351-11.171 47.1 47.1 0 0 1 -1.351-11.023c6.867-2.215 12.166-4.31 15.102-5.536zm-8.836 32.414a31.566 31.566 0 1 1 -2.297-2.455 24.921 24.921 0 0 0 2.297 2.455zm19.4 20.159a43.485 43.485 0 1 1 -28.788-40.93 46.462 46.462 0 0 0 1.073 5.782 38.723 38.723 0 0 0 1.577 4.855 34.941 34.941 0 1 0 13.936 14.785c.335.144.667.292 1.011.424a1.753 1.753 0 0 0 1.254 0 25.651 25.651 0 0 0 5.914-3.19 43.659 43.659 0 0 1 4.027 18.274z"/><path d="m91.3 37.218a1.75 1.75 0 0 0 1.251.528 1.751 1.751 0 0 0 1.25-.526l8.359-8.536a1.75 1.75 0 1 0 -2.5-2.45l-7.107 7.258-2.916-2.987a1.75 1.75 0 1 0 -2.5 2.444z"/></svg>