<svg id="Layer_1" height="512" viewBox="0 0 128 128" width="512" xmlns="http://www.w3.org/2000/svg" data-name="Layer 1"><path d="m70.931 54.3a11.323 11.323 0 1 0 -13.862 0 22.285 22.285 0 0 0 -15.319 21.142 1.75 1.75 0 0 0 1.75 1.75h41a1.75 1.75 0 0 0 1.75-1.75 22.285 22.285 0 0 0 -15.319-21.142zm-14.754-8.931a7.823 7.823 0 1 1 7.823 7.823 7.832 7.832 0 0 1 -7.823-7.823zm-10.846 28.323a18.751 18.751 0 0 1 37.338 0z"/><path d="m110.242 30.143a1.747 1.747 0 0 0 -1.232-1.487 403.97 403.97 0 0 1 -44.289-16.1 1.744 1.744 0 0 0 -1.442 0 403.97 403.97 0 0 1 -44.289 16.1 1.747 1.747 0 0 0 -1.232 1.487 113.457 113.457 0 0 0 2.912 35.942c6.257 25.127 21.05 42.22 42.779 49.43a1.75 1.75 0 0 0 1.1 0c21.729-7.21 36.522-24.3 42.779-49.43a113.457 113.457 0 0 0 2.914-35.942zm-6.309 35.1c-5.984 24.028-19.418 39.757-39.933 46.764-20.487-7-33.912-22.694-39.909-46.672a113.508 113.508 0 0 1 -2.949-33.676 415.982 415.982 0 0 0 42.858-15.599 416.235 416.235 0 0 0 42.858 15.6 113.251 113.251 0 0 1 -2.925 33.579z"/><path d="m101.339 34.655c-17.382-5.5-30.426-10.754-36.655-13.4a1.755 1.755 0 0 0 -1.368 0c-6.229 2.643-19.273 7.9-36.655 13.4a1.751 1.751 0 0 0 -1.222 1.632 107.982 107.982 0 0 0 3.1 28.293c5.43 21.36 17.149 35.63 34.832 42.414a1.753 1.753 0 0 0 1.254 0c17.685-6.784 29.404-21.054 34.834-42.414a107.99 107.99 0 0 0 3.1-28.293 1.751 1.751 0 0 0 -1.22-1.632zm-5.273 29.063c-5.066 19.938-15.855 33.313-32.066 39.763-16.211-6.45-27-19.825-32.066-39.763a105.715 105.715 0 0 1 -3.014-26.108c16.315-5.21 28.709-10.157 35.08-12.841 6.371 2.684 18.765 7.631 35.08 12.841a105.725 105.725 0 0 1 -3.014 26.108z"/></svg>