<svg id="Layer_1" data-name="Layer 1" xmlns="http://www.w3.org/2000/svg" viewBox="0 0 75 75"><defs><style>.cls-1{fill:#e6e6e6;}.cls-2,.cls-3,.cls-4{fill:none;stroke:#000;stroke-width:0.5px;}.cls-2,.cls-3{stroke-miterlimit:10;}.cls-3,.cls-4{stroke-linecap:round;}.cls-4{stroke-linejoin:round;}</style></defs><title>document</title><path class="cls-1" d="M21.88,66.88a7,7,0,0,1-7-7V14.13a7,7,0,0,1,7-7H44.45a3.26,3.26,0,0,1,2.39,1c3,3.27,12.25,12.1,13.29,13.09a3.26,3.26,0,0,1,1,2.35V59.88a7,7,0,0,1-7,7Z"/><path d="M44.45,7.63a2.76,2.76,0,0,1,2,.88c3,3.29,12.27,12.12,13.31,13.12a2.76,2.76,0,0,1,.85,2V59.88a6.51,6.51,0,0,1-6.5,6.5H21.88a6.51,6.51,0,0,1-6.5-6.5V14.13a6.51,6.51,0,0,1,6.5-6.5H44.45m0-1H21.88a7.52,7.52,0,0,0-7.5,7.5V59.88a7.52,7.52,0,0,0,7.5,7.5H54.13a7.52,7.52,0,0,0,7.5-7.5V23.61a3.74,3.74,0,0,0-1.16-2.71C57.54,18.1,49.9,10.74,47.2,7.83a3.75,3.75,0,0,0-2.75-1.21Z"/><path class="cls-2" d="M60.69,22.94H52.81a7.52,7.52,0,0,1-7.5-7.5V7.56"/><line class="cls-3" x1="21.88" y1="32.88" x2="29.38" y2="32.88"/><line class="cls-3" x1="57.5" y1="36.63" x2="57.5" y2="44.13"/><line class="cls-3" x1="21.88" y1="27.25" x2="39.5" y2="27.25"/><line class="cls-3" x1="32.38" y1="32.88" x2="39.5" y2="32.88"/><line class="cls-3" x1="21.88" y1="38.5" x2="26.38" y2="38.5"/><line class="cls-3" x1="28.63" y1="38.5" x2="39.5" y2="38.5"/><line class="cls-3" x1="21.88" y1="21.63" x2="27.13" y2="21.63"/><line class="cls-3" x1="21.88" y1="44.13" x2="36.13" y2="44.13"/><path class="cls-3" d="M57.5,47.13V58.75a4.51,4.51,0,0,1-4.5,4.5H23a4.51,4.51,0,0,1-4.5-4.5V15.25a4.51,4.51,0,0,1,4.5-4.5h7.13"/><path class="cls-4" d="M42.88,36.63V28a.75.75,0,0,1,.75-.75h9.75a.75.75,0,0,1,.75.75v9.75a.75.75,0,0,1-.75.75H44.75"/><line class="cls-3" x1="21.88" y1="50.13" x2="28.63" y2="50.13"/><line class="cls-3" x1="21.88" y1="56.13" x2="33.13" y2="56.13"/><line class="cls-3" x1="35.38" y1="56.13" x2="44.38" y2="56.13"/><line class="cls-3" x1="39.13" y1="44.13" x2="54.13" y2="44.13"/><line class="cls-3" x1="39.13" y1="50.13" x2="54.13" y2="50.13"/><line class="cls-3" x1="46.63" y1="56.13" x2="54.13" y2="56.13"/><line class="cls-3" x1="36.88" y1="50.13" x2="30.88" y2="50.13"/></svg>