<svg id="Layer_1" data-name="Layer 1" xmlns="http://www.w3.org/2000/svg" viewBox="0 0 100 100"><defs><style>.cls-1{fill:none;stroke:#000;stroke-linecap:round;stroke-miterlimit:10;stroke-width:2px;}</style></defs><title>task</title><path class="cls-1" d="M90,55V71a9.91,9.91,0,0,1-9.75,10H21.75A9.91,9.91,0,0,1,12,71V55"/><path d="M79,65a4,4,0,0,1,0,8H23a4,4,0,0,1,0-8H79m0-1H23a5,5,0,0,0-5,5h0a5,5,0,0,0,5,5H79a5,5,0,0,0,5-5h0a5,5,0,0,0-5-5Z"/><path d="M79,53a4,4,0,0,1,0,8H23a4,4,0,0,1,0-8H79m0-1H23a5,5,0,0,0-5,5h0a5,5,0,0,0,5,5H79a5,5,0,0,0,5-5h0a5,5,0,0,0-5-5Z"/><path d="M79,41a4,4,0,0,1,0,8H23a4,4,0,0,1,0-8H79m0-1H23a5,5,0,0,0-5,5h0a5,5,0,0,0,5,5H79a5,5,0,0,0,5-5h0a5,5,0,0,0-5-5Z"/></svg>