<svg id="Layer_1" data-name="Layer 1" xmlns="http://www.w3.org/2000/svg" viewBox="0 0 100 100"><defs><style>.cls-1{fill:none;stroke:#000;stroke-linecap:round;stroke-miterlimit:10;}</style></defs><title>user</title><path d="M51.5,43A22.37,22.37,0,0,1,74,65.19V76.32A5.74,5.74,0,0,1,68.22,82H34.78A5.74,5.74,0,0,1,29,76.32V65.19A22.37,22.37,0,0,1,51.5,43m0-2A24.34,24.34,0,0,0,27,65.19V76.32A7.75,7.75,0,0,0,34.78,84H68.22A7.75,7.75,0,0,0,76,76.32V65.19A24.34,24.34,0,0,0,51.5,41Z"/><path d="M51.5,18A11.5,11.5,0,1,1,40,29.5,11.51,11.51,0,0,1,51.5,18m0-2A13.5,13.5,0,1,0,65,29.5,13.5,13.5,0,0,0,51.5,16Z"/><path class="cls-1" d="M70,73.48a5.91,5.91,0,0,1-5.87,5.92H38.87A5.91,5.91,0,0,1,33,73.48V64.9A18.57,18.57,0,0,1,51.5,46.27"/><path class="cls-1" d="M51.5,21A8.5,8.5,0,0,0,43,29.5"/></svg>