<svg xmlns="http://www.w3.org/2000/svg" viewBox="0 0 140 140"><title>icon</title><circle cx="80" cy="80.07" r="50" fill="#133547" opacity="0.1"/><path d="M99.69,36.89v21.4c0,6.41,1.29,14.53-1,20.69-3.49,9.39-13,16.39-21,21.69a122.37,122.37,0,0,1-16.85,9.43h7.07a122.29,122.29,0,0,1-16.42-9.15C43.25,95.6,33.55,88.52,30,79c-2.24-6-1-13.93-1-20.2V36.89l-7,7A28.65,28.65,0,0,0,50.17,15.72l-7,7H85.51l-7-7a28.65,28.65,0,0,0,28.18,28.17c9,.29,9-13.71,0-14A14.38,14.38,0,0,1,92.51,15.72a7.12,7.12,0,0,0-7-7H43.17a7.13,7.13,0,0,0-7,7A14.38,14.38,0,0,1,22,29.89a7.12,7.12,0,0,0-7,7c0,12.15-.23,24.33,0,36.48.36,19,17.51,32.42,32.31,41.52a91,91,0,0,0,13.44,7.27c5.43,2.17,10.9-1.69,15.62-4.33,15.18-8.49,34.36-21.57,37-40.24.93-6.62.33-13.61.33-20.27V36.89C113.69,27.88,99.69,27.87,99.69,36.89Z" fill="#fff"/><path d="M79.38,61.39v4.41c0,.37-.25,2.16,0,2.39-.47-.42,1.73-2.76,2-2.3-.43-.72-7.81,0-9,0a7.1,7.1,0,0,0-7,7v7a11.56,11.56,0,0,0,0,2c.47.39.14-.66.72-1.28,1.49-1.62,2.11-.39.47-.72a11.75,11.75,0,0,0-2.21,0,12.16,12.16,0,0,0-2.21,0c-1.44.3-.53-.58-.32.36.12.52,1.74,1.45,1.51,1.64.2-.17,0-1.34,0-1.6.16-2.45,0-5,0-7.42a7.1,7.1,0,0,0-7-7h-7a11.55,11.55,0,0,0-2,0c-.39.47.66.14,1.28.72,1.62,1.49.39,2.11.72.47a11.74,11.74,0,0,0,0-2.21,12.15,12.15,0,0,0,0-2.21c-.3-1.44.58-.53-.36-.32-.52.12-1.45,1.74-1.64,1.51.17.2,1.34,0,1.6,0,2.45.16,5,0,7.42,0a7.1,7.1,0,0,0,7-7v-7a11.56,11.56,0,0,0,0-2c-.47-.39-.14.66-.72,1.28-1.49,1.62-2.11.39-.47.72a11.75,11.75,0,0,0,2.21,0,12.16,12.16,0,0,0,2.21,0c1.44-.3.53.58.32-.36-.12-.52-1.74-1.45-1.51-1.64-.2.17,0,1.34,0,1.6-.16,2.45,0,5,0,7.42a7.1,7.1,0,0,0,7,7h5.21a12.9,12.9,0,0,0,3.28,0c2-.65-1.17-.17-1.23-.6.51,3.78,5.31,5.76,8.61,4.89,4.05-1.07,5.39-4.88,4.89-8.61-1.44-10.63-12.81-9.68-20.77-9.68l7,7c0-3.71.43-7.68-.25-11.34-1.42-7.67-7.92-9.68-14.77-9.68-6.61,0-12.95,1.78-14.69,9.08-.9,3.77-.33,8.1-.33,11.94l7-7c-3.71,0-7.67-.43-11.34.25-7.67,1.42-9.68,7.91-9.68,14.77,0,6.61,1.78,12.94,9.08,14.69,3.77.9,8.1.33,11.94.33l-7-7c0,3.71-.43,7.68.25,11.34C51,91.89,57.49,93.9,64.34,93.9,71,93.9,77.29,92.12,79,84.83c.9-3.77.33-8.1.33-11.94l-7,7c4.82,0,11,.93,15.3-1.58,6.29-3.63,5.72-10.69,5.72-16.92C93.38,52.38,79.38,52.36,79.38,61.39Z" fill="#fff"/><path d="M104.59,35.83v21.4c0,6.93,1.17,15.31-1.18,22-3.77,10.69-14.16,18.62-23.28,24.62a122.37,122.37,0,0,1-16.85,9.43H65.4A122.29,122.29,0,0,1,49,104.12c-9.26-6-19.88-14.05-23.7-24.9C23,72.68,24.1,64.51,24.1,57.72V35.83L22,37.93A23.65,23.65,0,0,0,45.27,14.65l-2.1,2.1H85.51l-2.1-2.1a23.65,23.65,0,0,0,23.28,23.27c2.7.09,2.7-4.11,0-4.2A19.38,19.38,0,0,1,87.61,14.65a2.14,2.14,0,0,0-2.1-2.1H43.17a2.14,2.14,0,0,0-2.1,2.1A19.38,19.38,0,0,1,22,33.73a2.14,2.14,0,0,0-2.1,2.1c0,12.15-.23,24.33,0,36.48.32,17,16.7,29.18,29.88,37.29,4,2.45,8.85,6.07,13.44,7.27,3.26.85,8-2.83,10.68-4.33,13.73-7.68,32.21-19.65,34.64-36.66.91-6.38.25-13.2.25-19.62V35.83C108.79,33.12,104.59,33.12,104.59,35.83Z" fill="#133547"/><path d="M84.28,60.32c0,3.26,1.22,8.68-2.9,9.39-2.83.49-6.14,0-9,0a2.13,2.13,0,0,0-2.1,2.1v7c0,1.22.25,3.21-.72,4.18-1.13,1.12-3.79.72-5.2.72s-3,.27-4.26-.36c-1.8-.89-1.58-2.37-1.66-4.14-.11-2.46,0-5,0-7.42a2.13,2.13,0,0,0-2.1-2.1h-7c-1.22,0-3.21.25-4.18-.72-1.12-1.13-.72-3.78-.72-5.2s-.26-3,.36-4.26c.89-1.8,2.37-1.58,4.14-1.66,2.46-.11,5,0,7.42,0a2.13,2.13,0,0,0,2.1-2.1v-7c0-1.22-.25-3.21.72-4.18,1.13-1.12,3.79-.72,5.2-.72s3-.27,4.26.36c1.8.89,1.58,2.37,1.66,4.14.11,2.46,0,5,0,7.42a2.13,2.13,0,0,0,2.1,2.1c3.45,0,11.37-1.59,12,3,.36,2.67,4.41,1.53,4-1.12-1.06-7.82-10.36-6.08-16-6.08l2.1,2.1c0-3.28.4-6.8-.08-10-.81-5.55-5.41-6.08-10-6.08-4.31,0-8.93.31-10,5.48-.67,3.38-.16,7.21-.16,10.64l2.1-2.1c-3.28,0-6.79-.4-10,.08-5.55.81-6.08,5.41-6.08,10,0,4.31.31,8.93,5.48,10,3.38.67,7.2.16,10.64.16l-2.1-2.1c0,3.28-.4,6.8.08,10,.81,5.55,5.41,6.08,10,6.08,4.31,0,8.93-.31,10-5.48.67-3.38.16-7.21.16-10.64l-2.1,2.1c3.77,0,9.4,1.08,12.83-.91,4.38-2.54,3.29-8.46,3.29-12.69C88.48,57.62,84.28,57.62,84.28,60.32Z" fill="#133547"/></svg>