<svg xmlns="http://www.w3.org/2000/svg" viewBox="0 0 140 140"><title>icon</title><circle cx="80" cy="80" r="50" fill="#133547" opacity="0.1"/><path d="M70.44,94.4l18.33,22.19c4.27,5.16,11.44.43,11.95-4.95l1.71-17.92-7,7,17.82,1.7c6.66.63,8.39-7.78,4.95-11.95L99.91,68.33c-5.74-7-15.6,3-9.9,9.9l18.28,22.14,4.95-11.95-17.82-1.7c-4-.38-6.67,3.53-7,7l-1.71,17.92,11.95-4.95L80.34,84.5c-5.74-7-15.6,3-9.9,9.9Z" fill="#fff"/><path d="M47.47,84.5,29.14,106.69l11.95,4.95L39.39,93.72c-.33-3.48-2.95-7.39-7-7l-17.82,1.7,4.95,11.95L37.8,78.23c5.7-6.9-4.15-16.85-9.9-9.9L9.61,90.46C6.19,94.61,7.92,103,14.56,102.41l17.82-1.7-7-7,1.71,17.92c.51,5.35,7.7,10.1,11.95,4.95L57.37,94.4c5.7-6.9-4.15-16.85-9.9-9.9Z" fill="#fff"/><path d="M41,56.75,53.55,69.33a7.11,7.11,0,0,0,9.9,0L87.32,45.46c6.38-6.38-3.52-16.28-9.9-9.9L53.55,59.44h9.9L50.86,46.85c-6.38-6.38-16.28,3.52-9.9,9.9Z" fill="#fff"/><path d="M73.67,90.75,92,112.94c1.28,1.55,3.43.13,3.58-1.48l1.71-17.92-2.1,2.1L113,97.33c2,.19,2.52-2.34,1.48-3.58L96.22,71.61c-1.72-2.09-4.68.9-3,3l18.28,22.14L113,93.13l-17.82-1.7c-1.2-.11-2,1.06-2.1,2.1l-1.71,17.92L95,110,76.64,87.78c-1.72-2.09-4.68.9-3,3Z" fill="#133547"/><path d="M50.7,87.78,32.37,110,36,111.45,34.25,93.53c-.1-1-.88-2.22-2.1-2.1l-17.82,1.7,1.48,3.58L34.1,74.58c1.71-2.07-1.25-5.06-3-3L12.85,93.75c-1,1.24-.51,3.77,1.48,3.58l17.82-1.7-2.1-2.1,1.71,17.92c.15,1.61,2.31,3,3.58,1.48L53.67,90.75c1.71-2.07-1.25-5.06-3-3Z" fill="#133547"/><path d="M92.88,51.41A30.05,30.05,0,0,1,39.81,70.77c-17.92-21,1.53-54.22,28.62-48.9A30.43,30.43,0,0,1,92.88,51.41c.17,9,14.17,9,14,0A44.73,44.73,0,0,0,77.89,10,44.27,44.27,0,0,0,29.08,23.14C17.3,37.4,15.41,58.05,25,74A44.61,44.61,0,0,0,71.49,94.59c20.6-3.91,35-22.59,35.38-43.18C107,42.4,93,42.4,92.88,51.41Z" fill="#fff"/><path d="M97.78,51.41c-.27,14.52-9.1,27.81-22.93,32.83a35,35,0,0,1-42-50.84A35.26,35.26,0,0,1,69.73,17.14c16.35,3.32,27.74,17.78,28,34.27,0,2.7,4.25,2.71,4.2,0A39.69,39.69,0,0,0,76.59,14.75,39.16,39.16,0,0,0,29.24,71.54a39.57,39.57,0,0,0,41,18.32C88.66,86.4,101.64,69.93,102,51.41,102,48.71,97.83,48.7,97.78,51.41Z" fill="#133547"/><path d="M44.19,53.1,56.78,65.69a2.13,2.13,0,0,0,3,0L83.62,41.81c1.91-1.91-1.06-4.88-3-3L56.78,62.72h3L47.16,50.13c-1.91-1.91-4.88,1.06-3,3Z" fill="#133547"/></svg>