<svg xmlns="http://www.w3.org/2000/svg" viewBox="0 0 140 140"><title>icon</title><circle cx="80" cy="80" r="50" fill="#133547" opacity="0.1"/><path d="M33,24.05c-1.23.75-4.25-2.61-4.3-.83,0,.31.63,1,.79,1.29l3,5,3,4.84c.47.76,1.57,3.55,2.39,3.92,1.2.54,1.15-4,1.26-3.91a12.42,12.42,0,0,0-2,1.35,16.93,16.93,0,0,0-5.84,7.47A17.4,17.4,0,0,0,32.5,58.33c3.19,5.77,6.89,11.3,10.33,16.93,4,6.6,7.56,13.76,16,15.26a16.82,16.82,0,0,0,8.75-.76c.87-.32,2.55-.8,3.19-1.53,1.48-1.68-3.79-3.36-3.35-1.4.59,2.67,3.67,6,5.09,8.35L75.49,100c1.21,2,1.1,3.31,2.07,0,1.1-3.74-.1-1.64-2.2-.79a19.76,19.76,0,0,1-3.65,1.06,19.12,19.12,0,0,1-8-.18C56.75,98.5,52.89,93.69,49.41,88L37.57,68.57C34,62.78,30.41,57,27,51.19c-5.52-9.38-3.37-21.08,6-27.14,7.54-4.88.53-17-7.07-12.09C13.52,20,7.09,34.76,11,49.23,12.8,56.14,17.36,62.32,21,68.36L35.77,92.5c4.48,7.34,8.93,14.43,17,18.43a34.26,34.26,0,0,0,20.71,3.23c6-1,14.46-3.69,16.51-10.2,1.54-4.9-1-8.75-3.42-12.7-2.22-3.64-4.36-7.34-6.66-10.93-3.52-5.47-9.07-7.76-15.2-4.77-2.87,1.4-4.23,1.5-6-1.24-4.58-7-8.71-14.28-13-21.4-2.07-3.4-1.66-4.79,1.61-7.23C52.88,41.48,52.26,35,49,29.63,44.43,22.2,37.45,4.92,25.9,12,18.22,16.65,25.24,28.76,33,24.05Z" fill="#fff"/><path d="M110.19,19.48V44c0,1.76.57,4.6,0,6.29-.33,1,.85-.64,0-.59-1,.07-2,.14-3.08.14-3,0-6.12-.18-9.14,0-5.34.31-10.07,6.07-14,9.38h9.9c-2.69-2.3-5.34-4.64-8.07-6.89-3.65-3-7.34-2.49-11.77-2.49-2.72,0-3.84.72-4.25-1.58-.62-3.51,0-7.67,0-11.23V23.54a18.7,18.7,0,0,0,0-4.08c0-.14.11-.81,0-.88s1.63-5.82-.63,1c-.71,2.13-.46.51,1,.74,6.11.94,13.11,0,19.28,0h14.33a45.22,45.22,0,0,0,4.55,0c1.21-.12,2,.81,1.78-.81.43,3.79,2.91,7,7,7,3.45,0,7.43-3.25,7-7-.92-8-6.83-12.84-14.86-13.19-2.71-.12-5.45,0-8.16,0H73.11c-4.16,0-8.32.26-11.94,2.58-4.33,2.78-5.31,7.28-5.31,12,0,9-.12,18.1,0,27.14.08,6.48,3.1,12.19,9.4,14.7,4.63,1.85,10.25,1.12,15.14,1.12L75.46,61.8l8.59,7.33a7.23,7.23,0,0,0,9.9,0l8.6-7.33L97.6,63.85c4.86,0,10.24.65,15-.35,7.52-1.57,11.48-7.36,11.56-14.71.11-9.77,0-19.54,0-29.31C124.19,10.48,110.19,10.46,110.19,19.48Z" fill="#fff"/><path d="M95.85,42.88v-5.7l-7,7c6.15-.45,11.56-3.62,13.78-9.62a14.68,14.68,0,0,0-18.9-18.9c-6,2.21-9.17,7.62-9.62,13.78-.66,9,13.34,8.95,14,0,.15-2.07,2.82.59.75.75-3.77.28-7,3-7,7v5.7c0,9,14,9,14,0Z" fill="#fff"/><path d="M88.72,57.13c9,0,9-14,0-14s-9,14,0,14Z" fill="#fff"/><path d="M30.49,19.82c2.17-1.33,11,13.78,11.58,16s-1.05,3-2.54,4.14a12.11,12.11,0,0,0-3.84,5.13,12.46,12.46,0,0,0,1,10.78c3.2,5.76,6.89,11.3,10.33,16.93,3.26,5.34,6.12,12.06,13.11,13A12.07,12.07,0,0,0,66.31,85c1.9-.76,3.38-2.4,5.37-.68s3.64,6,5.09,8.35c1.25,2,4.63,5.71,4.13,8.2S75.39,104.54,73,105a24.43,24.43,0,0,1-10.63-.18c-8.16-1.94-13.06-7.62-17.2-14.4L33.34,71c-3.53-5.79-7.16-11.53-10.6-17.38-6.91-11.75-3.83-26.35,7.75-33.84,2.26-1.46.16-5.1-2.12-3.63C17.84,23,12.4,35.63,15.68,47.92c1.72,6.46,6.16,12.32,9.6,18L40,90c4.06,6.66,7.91,13,15.23,16.67a28.93,28.93,0,0,0,16.93,2.74c4.06-.58,11.5-2.27,13.09-6.78,1.17-3.34-1.3-6.25-2.93-8.92C80.1,90.1,78,86.37,75.65,82.81c-2.09-3.19-4.73-4.63-8.49-3-3.1,1.34-5.5,2.83-9,1-1.77-.91-2.73-2.46-3.75-4-4.54-7-8.71-14.27-13-21.4a16.3,16.3,0,0,1-2-3.82c-1.4-4.93,1.81-7,4.88-9.73,3.45-3.1,2.63-6.24.49-9.75-2.53-4.14-5-8.31-7.58-12.43-1.9-3.06-5-5.77-8.78-3.48C26.07,17.6,28.17,21.23,30.49,19.82Z" fill="#133547"/><path d="M115.09,19.48v14.1c0,5.34.84,11.44,0,16.71-1.14,7.16-12.26,3.59-17.09,4.45-3.87.69-7.54,5.44-10.49,7.95h3c-2.65-2.27-5.22-4.9-8.07-6.89-2.41-1.68-5.4-1.06-8.3-1.06-4.63,0-8.8-1.15-9.15-6.48-.24-3.71,0-7.51,0-11.23V23.54c0-3.87-.63-7.49,4.64-8.05,6.52-.7,13.38-.09,19.93-.09h14.33c3.57,0,10.65-.92,11.22,4.09.3,2.65,4.51,2.69,4.2,0C118.13,9.34,105.94,11.2,98.6,11.2c-9.19,0-18.44-.28-27.63,0-4.86.15-9.73,1.85-10.21,7.29-.29,3.19,0,6.55,0,9.75V44.6c0,3.76-.42,7.39,2.13,10.52,3.66,4.47,10.5,4.36,15.81,3.83,1.77-.18,1.61.47.43-.44.9.69,1.74,1.49,2.61,2.22l5.78,4.93a2.17,2.17,0,0,0,3,0l6.81-5.8a9.53,9.53,0,0,0,1.47-1.25c.4-.53-1.31.14-.75.33,1.21.42,3.21,0,4.5,0,6.07,0,15.24.76,16.66-7.18.92-5.14.13-11,.13-16.2V19.48C119.29,16.78,115.09,16.78,115.09,19.48Z" fill="#133547"/><path d="M91,42.88v-5.7l-2.1,2.1c8.29-.61,13.35-10.4,6.95-16.79S79.62,21.13,79,29.44c-.2,2.7,4,2.68,4.2,0,.36-4.88,5.94-7.55,9.57-3.92s1,9.21-3.92,9.57a2.14,2.14,0,0,0-2.1,2.1v5.7c0,2.7,4.2,2.71,4.2,0Z" fill="#133547"/><path d="M88.72,52.23c2.7,0,2.71-4.2,0-4.2s-2.71,4.2,0,4.2Z" fill="#133547"/></svg>