<svg xmlns="http://www.w3.org/2000/svg" viewBox="0 0 140 140"><title>icon</title><circle cx="80" cy="80" r="50" fill="#133547" opacity="0.1"/><path d="M80.67,53.12v46a20.3,20.3,0,0,0,0,3.31c0,.25-.11.74,0,1,.68,1.48,4.34-2.55,3.24-3.1-1.31-.66-4.64,0-6.08,0H36.38c-2.1,0-5.81-.75-7.8,0-2.42.91,3.45,2.66,2.53,3.22a7.93,7.93,0,0,0,0-1.74,80.78,80.78,0,0,0,0-8.35V38.69c0-2.27.66-5.68,0-7.87s-4.55,2.1-2.83,2.71c1.15.41,3.31,0,4.52,0H58.71L52.67,23c-5.11,11-3.79,24.12,5.41,32.67A27.88,27.88,0,0,0,91.2,59.16C99,54.68,92,42.58,84.13,47.07,73,53.47,59,42.37,64.76,30.07c2.17-4.68-.36-10.53-6-10.53H33.19c-4.11,0-8.31-.42-11.81,2.21s-4.26,6.44-4.26,10.48V89.29c0,5.59-1.4,13.83,1.14,19.09,3.85,7.94,14.85,6,22.09,6H72.27c7.9,0,19.55,1.91,22.05-8.23.75-3,.34-6.52.34-9.61V53.12C94.67,44.11,80.67,44.09,80.67,53.12Z" fill="#fff"/><path d="M48.21,91.61c-.85,0-9.06-.06-9.07,0,0-.68,2.79,1.7,2,2,0,0,0-.49,0-.54.37-.79,0-2.77,0-3.61V63.89c0-.77.6-5.36,0-5.95.69.67-1.95,1.75-1.68,2s1.89,0,2.33,0c1.34,0,4.74.68,5.92,0,.9-.51-2.61-1.19-1.5-1.86-.22.13,0,2.56,0,2.79v26.4a38.76,38.76,0,0,0,0,4.91c.37,2.78-.4-.24,2-.57-3.78.51-7,2.85-7,7,0,3.39,3.25,7.5,7,7,7.49-1,11.76-5.66,12-13.22.14-4.54,0-9.11,0-13.65V62.44c0-4.7.09-9.32-3.51-13-4.25-4.33-11.44-3.75-17-3.51-7.25.31-12.14,5.22-12.5,12.44-.48,9.58,0,19.3,0,28.89,0,4.89-.58,10.16,3,14.12,4.71,5.24,11.72,4.22,18.1,4.22C57.22,105.61,57.23,91.61,48.21,91.61Z" fill="#fff"/><path d="M72.64,91.61a69.57,69.57,0,0,0-8,0c.16,0-1.07,0-1.07,0,0-.54,2.34,1.61,1.86,1.5,1.08.26-.27.72.14.21a6.39,6.39,0,0,0,0-1.39c.13-3.24,0-6.51,0-9.75,0-1.1.33-2.87,0-3.92a7,7,0,0,0,0-.8c.3.08-1.73,2.65-2,1.92.14.37,7.22.12,8,0,1.66-.26.61-.39-.66-1-.7-.33-.14-1.66-.27.68-.18,3.07,0,6.21,0,9.29a18.82,18.82,0,0,0,0,4.14c.6,2.34-.51-.55,2-.89-3.78.51-7,2.85-7,7,0,3.39,3.25,7.5,7,7,7.48-1,11.7-5.56,12-13.11.18-4.45.09-9,0-13.43-.12-5.92-2.55-11.54-8.81-13.26-3.68-1-8.5-.66-12.26-.43-14.13.88-12,15.85-12,25.87,0,6.11,2.28,12.13,8.81,13.93,3.81,1,8.36.43,12.26.43C81.65,105.61,81.66,91.61,72.64,91.61Z" fill="#fff"/><path d="M68.16,26.28c12.67-11.8,30.78,6.3,19,19C81,51.84,90.87,61.76,97,55.15c10.15-10.89,10.81-28,0-38.77s-27.88-10.15-38.77,0c-6.61,6.15,3.31,16,9.9,9.9Z" fill="#fff"/><line x1="92.08" y1="50.21" x2="108.82" y2="66.94" fill="#fff"/><path d="M87.13,55.16l16.73,16.73c6.38,6.38,16.28-3.52,9.9-9.9L97,45.26c-6.38-6.38-16.28,3.52-9.9,9.9Z" fill="#fff"/><path d="M85.57,53.12v46c0,2,.78,5.16-1.66,6.08-1.54.59-4.45,0-6.08,0H36.38c-2.4,0-5.44.51-7.8,0-4-.88-2.37-8.62-2.37-11.77V38.69c0-2.34-.6-5.59,0-7.87.81-3,4-2.19,6.59-2.19H58.71L56.9,25.47C47.5,45.72,69.16,66.15,88.73,54.93c2.34-1.34.23-5-2.12-3.63-15.67,9-33.78-7.14-26.08-23.71a2.13,2.13,0,0,0-1.81-3.16H33.19c-2.74,0-6.5-.6-8.84,1.16S22,29.72,22,32.22v68c0,1.8-.25,4,.47,5.66,2.41,5.6,13.16,3.55,17.85,3.55H72.27c5,0,15.81,2.1,17.33-4.63.59-2.62.17-5.65.17-8.3V53.12C89.77,50.41,85.57,50.41,85.57,53.12Z" fill="#133547"/><path d="M48.21,96.51c-2.81,0-6.34.63-9.07,0-3.61-.83-2.9-4.19-2.9-7.07V63.89c0-1.8-.41-4.18,0-5.95,1-4.12,8.18-3.24,11.46-2.9,3.62.37,3.4,3,3.4,5.83v26.4c0,2.78,1.08,8.7-2.9,9.24-2.64.35-2.67,4.56,0,4.2,10-1.34,7.1-14.78,7.1-22V62.44c0-3.29.47-7-2.08-9.52-3.12-3.14-9.57-2.28-13.58-2.08-4.53.22-7.36,3-7.6,7.54-.52,9.57,0,19.31,0,28.89,0,3.64-.74,8.22,1.92,11.15,3.25,3.59,9.94,2.29,14.25,2.29C50.91,100.71,50.92,96.51,48.21,96.51Z" fill="#133547"/><path d="M72.64,96.51c-2.65,0-5.35.17-8,0-3.1-.2-3.87-1.78-4-4.59-.12-3.24,0-6.5,0-9.75,0-3-.75-6.7,2.9-7.7,2.21-.6,5.71-.17,8,0,3.16.24,3.85,1.73,4,4.59.14,3.48,2,16.78-2.9,17.44-2.64.35-2.67,4.56,0,4.2,9.82-1.32,7.25-14.44,7.1-21.64-.08-3.77-1.1-7.36-5.21-8.53-3.15-.9-7.75-.57-11-.25-9.8,1-7.1,14.1-7.1,21,0,4,.8,7.94,5.21,9.2,3.33,1,7.53.25,11,.25C75.34,100.71,75.35,96.51,72.64,96.51Z" fill="#133547"/><path d="M64.69,22.82c7.3-6.8,18.67-7.23,25.9,0s6.8,18.61,0,25.9c-1.84,2,1.12,5,3,3,8.35-9,8.89-23,0-31.84s-22.88-8.34-31.84,0c-2,1.85,1,4.81,3,3Z" fill="#133547"/><line x1="92.08" y1="50.21" x2="108.82" y2="66.94" fill="#fff"/><path d="M90.6,51.69l16.73,16.73c1.91,1.91,4.88-1.06,3-3L93.57,48.72c-1.91-1.91-4.88,1.06-3,3Z" fill="#133547"/></svg>