<svg xmlns="http://www.w3.org/2000/svg" viewBox="0 0 140 140"><title>icon</title><circle cx="80" cy="80" r="50" fill="#133547" opacity="0.1"/><path d="M29,103.37c.2-15.89,8.71-38.9,27.91-38.9s27.71,23,27.91,38.9c.12,9,14.12,9,14,0-.31-23.79-14.66-52.9-41.91-52.9S15.27,79.58,15,103.37c-.12,9,13.88,9,14,0Z" fill="#fff"/><path d="M58.27,123.79l6.16-6.92a1.81,1.81,0,0,0,.41-1.63l-7.79-32a1.8,1.8,0,0,1,.22-1.38l5.4-8.74a1.8,1.8,0,0,0,0-1.87l-4.21-7.11a1.87,1.87,0,0,0-3.2,0l-4.21,7.11a1.8,1.8,0,0,0,0,1.87l5.4,8.74a1.8,1.8,0,0,1,.22,1.38l-7.79,32a1.81,1.81,0,0,0,.41,1.63l6.16,6.92A1.87,1.87,0,0,0,58.27,123.79Z" fill="none" stroke="#fff" stroke-miterlimit="10" stroke-width="12"/><path d="M73.15,34.53a16.28,16.28,0,0,1-32.55,0,16.28,16.28,0,0,1,32.55,0c.26,9,14.26,9,14,0a30.32,30.32,0,0,0-53.39-19.3,30,30,0,0,0-2.91,34.58A30.8,30.8,0,0,0,62.78,63.88C77,61.3,86.74,48.62,87.15,34.53,87.42,25.52,73.42,25.53,73.15,34.53Z" fill="#fff"/><path d="M24.07,103.37c.24-18.68,10.75-43.8,32.81-43.8s32.57,25.12,32.81,43.8c0,2.7,4.23,2.71,4.2,0-.27-21-12.55-48-37-48s-36.74,27-37,48c0,2.7,4.17,2.71,4.2,0Z" fill="#133547"/><path d="M58.27,123.79l6.16-6.92a1.81,1.81,0,0,0,.41-1.63l-7.79-32a1.8,1.8,0,0,1,.22-1.38l5.4-8.74a1.8,1.8,0,0,0,0-1.87l-4.21-7.11a1.87,1.87,0,0,0-3.2,0l-4.21,7.11a1.8,1.8,0,0,0,0,1.87l5.4,8.74a1.8,1.8,0,0,1,.22,1.38l-7.79,32a1.81,1.81,0,0,0,.41,1.63l6.16,6.92A1.87,1.87,0,0,0,58.27,123.79Z" fill="none" stroke="#133547" stroke-miterlimit="10" stroke-width="4"/><path d="M78.05,34.53a21.18,21.18,0,0,1-42.35,0C35.64,23,45.53,13.69,56.88,13.69A21.27,21.27,0,0,1,78.05,34.53c.08,2.7,4.28,2.71,4.2,0C81.58,11.62,52.16.58,37.23,18.7,22.47,36.61,39,63.17,61.47,59.15A25.48,25.48,0,0,0,82.25,34.53C82.33,31.83,78.13,31.83,78.05,34.53Z" fill="#133547"/></svg>