<svg xmlns="http://www.w3.org/2000/svg" viewBox="0 0 140 140"><title>icon</title><circle cx="80" cy="80" r="50" fill="#133547" opacity="0.1"/><path d="M29.22,61.16c.32-21.2,17.4-38.81,38.83-38.83S106.57,40,106.89,61.16c.13,9,14.14,9,14,0C120.46,32.4,97.14,8.32,68.06,8.32S15.65,32.4,15.22,61.16c-.14,9,13.86,9,14,0Z" fill="#fff"/><path d="M59.78,63.66c.4-5.89,16.15-5.89,16.56,0,.61,8.94,14.62,9,14,0-1.65-24.14-42.9-24.13-44.56,0-.62,9,13.39,9,14,0Z" fill="#fff"/><path d="M61.06,99c-.28,5.06-7.94,5.07-8.22,0-.49-9-14.5-9-14,0,.54,9.84,8,17.81,18.11,17.89S74.52,108.67,75.06,99c.49-9-13.51-9-14,0Z" fill="#fff"/><path d="M37.5,59.39a11.45,11.45,0,0,1,6.61,1.89,18.19,18.19,0,0,0,1.35,1.33c-.38-.42.45,1.11.09.13.48,1.31.15-.61.22.91a7.14,7.14,0,0,0,7,7c3.67,0,7.16-3.2,7-7-.49-11.73-11.56-18-22.28-18.27-9-.21-9,13.79,0,14Z" fill="#fff"/><path d="M90.34,63.66c0-.88-.16-.34.43-1.16-.46.65,1.52-1.42,1.23-1.22a11.44,11.44,0,0,1,6.61-1.89c9-.21,9-14.21,0-14-10.72.25-21.78,6.54-22.28,18.27-.16,3.78,3.33,7,7,7a7.12,7.12,0,0,0,7-7Z" fill="#fff"/><path d="M61.06,67.4V97.63c0,9,14,9,14,0V67.4c0-9-14-9-14,0Z" fill="#fff"/><path d="M24.32,61.16c.36-23.85,19.62-43.7,43.73-43.73s43.38,19.92,43.73,43.73c0,2.7,4.24,2.71,4.2,0-.39-26.1-21.53-47.93-47.93-47.93S20.51,35.05,20.12,61.16c0,2.7,4.16,2.7,4.2,0Z" fill="#133547"/><path d="M54.88,63.66c.84-12.33,25.51-12.34,26.36,0,.18,2.68,4.39,2.7,4.2,0-1.22-17.8-33.54-17.8-34.76,0-.18,2.7,4,2.69,4.2,0Z" fill="#133547"/><path d="M66,99c-.62,11.35-17.4,11.37-18,0-.15-2.69-4.35-2.71-4.2,0,.39,7.11,5.83,13,13.21,13s12.82-5.83,13.21-13c.15-2.7-4.05-2.69-4.2,0Z" fill="#133547"/><path d="M37.5,54.49c5.43.12,12.91,2.7,13.18,9.17.11,2.69,4.31,2.71,4.2,0-.38-8.92-9.47-13.18-17.38-13.37-2.7-.06-2.7,4.14,0,4.2Z" fill="#133547"/><path d="M85.44,63.66c.27-6.46,7.75-9,13.18-9.17,2.7-.06,2.71-4.26,0-4.2-7.91.18-17,4.45-17.38,13.37-.11,2.7,4.09,2.7,4.2,0Z" fill="#133547"/><path d="M66,67.4V97.63c0,2.7,4.2,2.71,4.2,0V67.4c0-2.7-4.2-2.71-4.2,0Z" fill="#133547"/></svg>