<svg xmlns="http://www.w3.org/2000/svg" viewBox="0 0 140 140"><title>ICONS INDIKA</title><circle cx="80" cy="80" r="50" fill="#133547" opacity="0.1"/><path d="M33,65.56,54.27,89.5c6,6.75,15.87-3.18,9.9-9.9L42.92,55.66c-6-6.75-15.87,3.18-9.9,9.9Z" fill="#fff"/><path d="M88.67,40.85,54.28,79.59c-6,6.72,3.9,16.65,9.9,9.9L98.57,50.75c6-6.72-3.9-16.65-9.9-9.9Z" fill="#fff"/><path d="M36.48,62.09,57.74,86c1.8,2,4.76-1,3-3L39.45,59.12c-1.8-2-4.76,1-3,3Z" fill="#133547"/><path d="M92.14,44.31,57.75,83.05c-1.79,2,1.17,5,3,3L95.11,47.28c1.79-2-1.17-5-3-3Z" fill="#133547"/><path d="M104.61,63.73c-.24,15.39-9.79,29.7-24.51,34.9A38.16,38.16,0,0,1,38,87.12a37.24,37.24,0,0,1-3.08-42.33,37.51,37.51,0,0,1,69.7,18.94c.14,9,14.14,9,14,0A52,52,0,0,0,84.45,15.57c-20-7.37-43.81-.7-57.19,15.89S11.84,72,23.16,90.3A52.26,52.26,0,0,0,77.3,113.88c23.92-4.48,40.94-26.18,41.31-50.14C118.75,54.72,104.75,54.72,104.61,63.73Z" fill="#fff"/><path d="M109.51,63.73A42.31,42.31,0,1,1,30.68,42.32a42.42,42.42,0,0,1,78.83,21.41c0,2.7,4.24,2.71,4.2,0a46.51,46.51,0,1,0-86.32,24.1A47.18,47.18,0,0,0,76,109.15c21.79-4.08,37.37-23.48,37.72-45.42C113.76,61,109.56,61,109.51,63.73Z" fill="#133547"/></svg>