<svg xmlns="http://www.w3.org/2000/svg" viewBox="0 0 140 140"><title>icon</title><circle cx="80" cy="80.93" r="50" fill="#133547" opacity="0.1"/><path d="M22.09,87.39h90.69c9,0,9-14,0-14H22.09c-9,0-9,14,0,14Z" fill="#fff"/><path d="M41.08,105.16H93.79c9,0,9-14,0-14H41.08c-9,0-9,14,0,14Z" fill="#fff"/><path d="M42.85,65.09c.29-13.42,10.94-24.59,24.59-24.59S91.74,51.67,92,65.09c.19,9,14.19,9,14,0-.45-21-17.26-38.55-38.59-38.59S29.3,44.14,28.85,65.09c-.19,9,13.81,9,14,0Z" fill="#fff"/><path d="M22.09,82.49h90.69c2.7,0,2.71-4.2,0-4.2H22.09c-2.7,0-2.71,4.2,0,4.2Z" fill="#133547"/><path d="M41.08,100.26H93.79c2.7,0,2.71-4.2,0-4.2H41.08c-2.7,0-2.71,4.2,0,4.2Z" fill="#133547"/><path d="M60.44,13.44V26.76c0,9,14,9,14,0V13.44c0-9-14-9-14,0Z" fill="#fff"/><path d="M32.21,50.07,19,48.2c-3.74-.53-7.52.92-8.61,4.89-.9,3.28,1.12,8.08,4.89,8.61l13.18,1.87c3.74.53,7.52-.92,8.61-4.89C38,55.4,36,50.6,32.21,50.07Z" fill="#fff"/><path d="M106.31,63.57l13.18-1.87c3.75-.53,5.8-5.3,4.89-8.61-1.11-4-4.85-5.42-8.61-4.89l-13.18,1.87c-3.75.53-5.8,5.3-4.89,8.61,1.11,4,4.85,5.42,8.61,4.89Z" fill="#fff"/><path d="M46,32.32,36.62,22.9c-2.59-2.59-7.34-2.79-9.9,0a7.13,7.13,0,0,0,0,9.9l9.42,9.42c2.59,2.59,7.34,2.79,9.9,0a7.13,7.13,0,0,0,0-9.9Z" fill="#fff"/><path d="M98.74,42.22l9.42-9.42c2.59-2.59,2.79-7.34,0-9.9a7.13,7.13,0,0,0-9.9,0l-9.42,9.42c-2.59,2.59-2.79,7.34,0,9.9a7.13,7.13,0,0,0,9.9,0Z" fill="#fff"/><path d="M65.34,13.44V26.76c0,2.7,4.2,2.71,4.2,0V13.44c0-2.7-4.2-2.71-4.2,0Z" fill="#133547"/><path d="M30.9,54.79,17.72,52.92c-2.64-.37-3.79,3.67-1.12,4l13.18,1.87c2.64.37,3.79-3.67,1.12-4Z" fill="#133547"/><path d="M105,58.84,118.19,57c2.67-.38,1.53-4.43-1.12-4l-13.18,1.87c-2.67.38-1.53,4.43,1.12,4Z" fill="#133547"/><path d="M42.57,35.78l-9.42-9.42c-1.91-1.91-4.88,1.06-3,3l9.42,9.42c1.91,1.91,4.88-1.06,3-3Z" fill="#133547"/><path d="M95.27,38.75l9.42-9.42c1.91-1.91-1.06-4.88-3-3L92.3,35.78c-1.91,1.91,1.06,4.88,3,3Z" fill="#133547"/><path d="M37.95,65.09C38.29,49,51.1,35.61,67.44,35.61S96.58,49,96.92,65.09c.06,2.7,4.26,2.71,4.2,0-.39-18.36-15-33.66-33.69-33.69S34.14,46.78,33.75,65.09c-.06,2.7,4.14,2.7,4.2,0Z" fill="#133547"/></svg>