<svg xmlns="http://www.w3.org/2000/svg" viewBox="0 0 140 140"><title>ICONS INDIKA</title><circle cx="80" cy="80" r="50" fill="#133547" opacity="0.1"/><path d="M59.57,56.27c.28-3.51,12.69-3.51,13,0,.72,8.92,14.73,9,14,0-1.78-21.94-39.19-21.94-41,0-.73,9,13.27,8.93,14,0Z" fill="#fff"/><path d="M75.17,30.77c-.5,11.51-18.32,11.59-18.32,0s17.82-11.51,18.32,0c.39,9,14.39,9,14,0C88.62,18.19,78.9,7.89,66,7.84c-12.44,0-23.21,10.41-23.16,22.93A23.32,23.32,0,0,0,66,53.7c12.89,0,22.62-10.39,23.16-22.93C89.56,21.76,75.56,21.78,75.17,30.77Z" fill="#fff"/><path d="M46,53.26c-.79,5.26-1.29,10.54-1.87,15.82C43.9,71.59,43,76.54,42.31,78c-1.41,2.9-2.95,4.25-6.54,5.91-5.45,2.52-11.71,3.49-17.59,4.44-3.76.61-5.78,5.24-4.89,8.61,1,4,4.9,5.49,8.61,4.89,11.5-1.86,25.43-4.71,31.86-15.6,5.09-8.62,4.33-19.68,5.77-29.26.57-3.77-.95-7.48-4.89-8.61-3.3-.95-8,1.16-8.61,4.89Z" fill="#fff"/><path d="M72.41,57c1.45,9.58.68,20.64,5.77,29.26C84.62,97.13,98.55,100,110,101.84c3.76.61,7.49-1,8.61-4.89,1-3.33-1.16-8-4.89-8.61-5.87-.95-12.14-1.91-17.59-4.44-3.6-1.67-5.11-3-6.54-5.91-.71-1.45-1.59-6.39-1.86-8.91-.57-5.28-1.08-10.56-1.87-15.82-.57-3.77-5.27-5.77-8.61-4.89-4,1.06-5.45,4.89-4.89,8.61Z" fill="#fff"/><path d="M46.79,54.12V90.58c0,9,14,9,14,0V54.12c0-9-14-9-14,0Z" fill="#fff"/><path d="M72.16,54.12V90.58c0,9,14,9,14,0V54.12c0-9-14-9-14,0Z" fill="#fff"/><path d="M100.94,99.35H83.41l4.95,2.05C76.85,87.08,52.82,86.93,36.43,89.2L41.82,102c9.23-5.22,21.61-5.74,31.93-4.48a42.5,42.5,0,0,1,14.74,4.27,17.2,17.2,0,0,1,4.34,3,4.12,4.12,0,0,1,1.06,1.4c-.37-.65.11,1.32,0,.13.5,9,14.5,9,14,0-.75-13.41-16.07-19.68-27.37-21.84-14.77-2.83-32.45-2.16-45.81,5.4-7.47,4.22-1.94,13.81,5.39,12.79a65,65,0,0,1,23.41.81,37.25,37.25,0,0,1,9.92,3.62c2.05,1.16,3.24,2.72,5,4.17,3.41,2.83,8.1,2.05,12.26,2.05h10.22C109.94,113.35,110,99.35,100.94,99.35Z" fill="#fff"/><path d="M83.41,99.35H31.14l7,7c.44-6.93,17.1-4.31,21.53-3.61,6.67,1,14.38,3.07,18.79,8.56,2.39,3,7.41,2.44,9.9,0,2.94-2.88,2.36-7,0-9.9C80.73,91.91,66.3,89,54.84,88.24c-6.12-.38-15.38-1.13-20.73,2.08a19.76,19.76,0,0,0-10,16c-.24,3.78,3.4,7,7,7H83.41C92.42,113.35,92.43,99.35,83.41,99.35Z" fill="#fff"/><path d="M54.67,56.27c.82-10.14,22-10.14,22.78,0,.22,2.68,4.42,2.7,4.2,0-1.27-15.61-29.91-15.61-31.18,0-.22,2.69,4,2.68,4.2,0Z" fill="#133547"/><path d="M80.07,30.77A14.16,14.16,0,0,1,66,44.6c-7.5.07-14.13-6.25-14.06-13.83.18-17.93,27.35-17.81,28.12,0,.12,2.69,4.32,2.71,4.2,0-.43-9.92-8.11-18-18.26-18-9.8,0-18.3,8.15-18.26,18A18.35,18.35,0,0,0,66,48.8c10.16,0,17.83-8.13,18.26-18C84.38,28.07,80.18,28.07,80.07,30.77Z" fill="#133547"/><path d="M50.76,54.56c-1.25,8.25-.55,18.24-4.22,25.9-4.54,9.45-18,11.13-27.06,12.6-2.66.43-1.53,4.48,1.12,4,10-1.61,23.25-3.73,28.93-13.35,4.77-8.07,3.93-19.12,5.28-28.09.4-2.64-3.65-3.78-4-1.12Z" fill="#133547"/><path d="M77.14,55.68c1.35,9,.51,20,5.28,28.09,5.68,9.62,18.93,11.74,28.93,13.35,2.64.43,3.78-3.62,1.12-4-9.09-1.47-22.52-3.15-27.06-12.6-3.67-7.66-3-17.66-4.22-25.9-.4-2.66-4.45-1.53-4,1.12Z" fill="#133547"/><path d="M51.69,54.12V90.58c0,2.7,4.2,2.71,4.2,0V54.12c0-2.7-4.2-2.71-4.2,0Z" fill="#133547"/><path d="M77.06,54.12V90.58c0,2.7,4.2,2.71,4.2,0V54.12c0-2.7-4.2-2.71-4.2,0Z" fill="#133547"/><path d="M100.94,104.25H89.77c-1.67,0-4.15.48-5.76,0-1.22-.36,1.13.89-.32-.79A16.66,16.66,0,0,0,81,101.13C69,92.33,51.8,92,37.73,93.92l1.62,3.84C49.57,92,63,91.27,74.4,92.7c7.06.88,23.9,4.13,24.43,13.65.15,2.69,4.35,2.71,4.2,0-.6-10.83-15.12-15.46-23.77-17.12-13.45-2.58-29.87-2-42,4.9C35,95.4,36.64,98.27,38.85,98a71.62,71.62,0,0,1,26,.81,41.88,41.88,0,0,1,11.09,4.11c2.29,1.3,3.88,3.68,6,4.94,2.33,1.4,6.18.62,8.79.62h10.22C103.64,108.45,103.64,104.25,100.94,104.25Z" fill="#133547"/><path d="M83.41,104.25H31.14l2.1,2.1C34,94.3,52.71,96.66,61,98c7.46,1.22,16,3.69,21,9.82,1.69,2.11,4.65-.88,3-3-6.84-8.51-19.79-11.08-30.06-11.73C49.45,92.8,41.43,92,36.58,94.55A14.39,14.39,0,0,0,29,106.35a2.12,2.12,0,0,0,2.1,2.1H83.41C86.11,108.45,86.12,104.25,83.41,104.25Z" fill="#133547"/></svg>