<svg xmlns="http://www.w3.org/2000/svg" viewBox="0 0 140 140"><title>icon</title><circle cx="80" cy="80" r="50" fill="#133547" opacity="0.1"/><path d="M97.11,65.27c-.23,13-8.1,25-20.48,29.45a31.38,31.38,0,0,1-38-45.28A31.37,31.37,0,0,1,97.11,65.27c.16,9,14.16,9,14,0A46.08,46.08,0,0,0,81,22.55C63.23,16,42.44,21.95,30.61,36.61a45.82,45.82,0,0,0-4.05,51.56c9.75,16.65,29.11,25,47.94,21.61,21.29-3.88,36.24-23.3,36.62-44.51C111.27,56.26,97.27,56.26,97.11,65.27Z" fill="#fff"/><path d="M102,65.27c-.27,15.19-9.59,29-24.07,34.17A36.28,36.28,0,0,1,34.41,47,36.61,36.61,0,0,1,72.74,29.67c17,3.37,29,18.43,29.27,35.6,0,2.7,4.25,2.71,4.2,0a41,41,0,0,0-26.53-38A40.49,40.49,0,0,0,30.78,85.7a40.89,40.89,0,0,0,42.41,19.35c19.16-3.52,32.67-20.57,33-39.78C106.26,62.57,102.06,62.57,102,65.27Z" fill="#133547"/><path d="M27.17,100.72,71.58,56.31h-9.9L73.54,68.16a7.11,7.11,0,0,0,9.9,0l37.4-37.4c6.38-6.38-3.52-16.28-9.9-9.9l-37.4,37.4h9.9L71.58,46.41a7.11,7.11,0,0,0-9.9,0L17.27,90.82c-6.38,6.38,3.52,16.28,9.9,9.9Z" fill="#fff"/><path d="M95.22,32.81h20.67l-7-7V46.48c0,9,14,9,14,0V25.81a7.1,7.1,0,0,0-7-7H95.22c-9,0-9,14,0,14Z" fill="#fff"/><path d="M23.71,97.25,68.12,52.84h-3L77,64.7a2.13,2.13,0,0,0,3,0l37.4-37.4c1.91-1.91-1.06-4.88-3-3L77,61.73h3L68.12,49.87a2.13,2.13,0,0,0-3,0L20.74,94.28c-1.91,1.91,1.06,4.88,3,3Z" fill="#133547"/><path d="M95.22,27.91h20.67l-2.1-2.1V46.48c0,2.7,4.2,2.71,4.2,0V25.81a2.13,2.13,0,0,0-2.1-2.1H95.22c-2.7,0-2.71,4.2,0,4.2Z" fill="#133547"/></svg>