<svg xmlns="http://www.w3.org/2000/svg" viewBox="0 0 140 140"><title>ICONS INDIKA</title><circle cx="80" cy="80" r="50" fill="#133547" opacity="0.1"/><path d="M89.17,85.07v26.87c0,9,14,9,14,0V85.07c0-9-14-9-14,0Z" fill="#fff"/><path d="M38.39,61.18v50.76c0,9,14,9,14,0V61.18c0-9-14-9-14,0Z" fill="#fff"/><path d="M63.78,61.18v50.76c0,9,14,9,14,0V61.18c0-9-14-9-14,0Z" fill="#fff"/><path d="M13,78.1v33.84c0,9,14,9,14,0V78.1c0-9-14-9-14,0Z" fill="#fff"/><path d="M70.78,54.18H45.39c-9,0-9,14,0,14H70.78c9,0,9-14,0-14Z" fill="#fff"/><path d="M96.17,78.07H70.78c-9,0-9,14,0,14H96.17c9,0,9-14,0-14Z" fill="#fff"/><path d="M20,85.1H45.39c9,0,9-14,0-14H20c-9,0-9,14,0,14Z" fill="#fff"/><path d="M96.17,104.94H20c-9,0-9,14,0,14H96.17c9,0,9-14,0-14Z" fill="#fff"/><path d="M46.16,22.2c1,.07,1.12.45,1.73,1q-.6-1.07-.19-.2-.32-1.24-.07-.33-.25.91.07-.33-.41.87.19-.2c-.61.58-.75,1-1.73,1,3.77-.26,7-3,7-7,0-3.59-3.21-7.26-7-7A13.29,13.29,0,0,0,33.64,22.71,13.29,13.29,0,0,0,46.16,36.2c3.78.26,7-3.4,7-7,0-4-3.21-6.74-7-7Z" fill="#fff"/><path d="M70,23.22c-1-.07-1.12-.45-1.73-1q.6,1.07.19.2.32,1.24.07.33.25-.91-.07.33.41-.87-.19.2c.61-.58.75-1,1.73-1-3.77.26-7,3-7,7,0,3.59,3.21,7.26,7,7A13.29,13.29,0,0,0,82.53,22.71,13.29,13.29,0,0,0,70,9.22c-3.78-.26-7,3.4-7,7,0,4,3.21,6.74,7,7Z" fill="#fff"/><path d="M53.5,44.28C54.24,53.17,60.19,58.9,69,59.59v-14H47.12v14c7.83-.62,14.77-5.68,15.43-14,.53-6.6-4.31-15.93-11.92-15.93l4.95,2.05c-2.85-2.54-2.17-5.82-2.17-9.3V13.1l-7,7H69.75l-7-7v9.34c0,3.48.68,6.77-2.17,9.3l4.95-2.05c-7.35,0-11.49,8.46-12,14.58-.8,9,13.21,8.92,14,0,.22-2.43.34,1.4-.78-.75q-2.71.38.68-.08l1.67-.71a15.65,15.65,0,0,0,5.15-5.54A20.31,20.31,0,0,0,76.75,27c.1-4.63,0-9.28,0-13.91a7.1,7.1,0,0,0-7-7H46.41a7.1,7.1,0,0,0-7,7c0,4.87-.2,9.79,0,14.65a19.16,19.16,0,0,0,5.45,13.16,9.82,9.82,0,0,0,3.08,2.18c4,1.67,1.77-.85.33.27-.43.33,1.2,2.05-1.14,2.24-8.86.7-9.13,14,0,14H69c9.12,0,8.88-13.3,0-14-.83-.07-1.47-.43-1.55-1.32C66.76,35.36,52.76,35.28,53.5,44.28Z" fill="#fff"/><path d="M94.07,85.07v26.87c0,2.7,4.2,2.71,4.2,0V85.07c0-2.7-4.2-2.71-4.2,0Z" fill="#133547"/><path d="M43.29,61.18v50.76c0,2.7,4.2,2.71,4.2,0V61.18c0-2.7-4.2-2.71-4.2,0Z" fill="#133547"/><path d="M68.68,61.18v50.76c0,2.7,4.2,2.71,4.2,0V61.18c0-2.7-4.2-2.71-4.2,0Z" fill="#133547"/><path d="M17.9,78.1v33.84c0,2.7,4.2,2.71,4.2,0V78.1c0-2.7-4.2-2.71-4.2,0Z" fill="#133547"/><path d="M70.78,59.08H45.39c-2.7,0-2.71,4.2,0,4.2H70.78c2.7,0,2.71-4.2,0-4.2Z" fill="#133547"/><path d="M96.17,83H70.78c-2.7,0-2.71,4.2,0,4.2H96.17c2.7,0,2.71-4.2,0-4.2Z" fill="#133547"/><path d="M20,80.2H45.39c2.7,0,2.71-4.2,0-4.2H20c-2.7,0-2.71,4.2,0,4.2Z" fill="#133547"/><path d="M96.17,109.84H20c-2.7,0-2.71,4.2,0,4.2H96.17c2.7,0,2.71-4.2,0-4.2Z" fill="#133547"/><path d="M46.16,27.1c-4.56-.31-4.56-8.47,0-8.78,2.68-.18,2.7-4.38,0-4.2-10,.67-10,16.51,0,17.18,2.7.18,2.69-4,0-4.2Z" fill="#133547"/><path d="M70,18.32c4.56.31,4.56,8.47,0,8.78-2.68.18-2.7,4.38,0,4.2,10-.67,10-16.51,0-17.18-2.7-.18-2.69,4,0,4.2Z" fill="#133547"/><path d="M58.4,44.28C58.91,50.36,63,54.22,69,54.69v-4.2H47.12v4.2c5-.39,9.44-3.3,10.46-8.51a10.39,10.39,0,0,0-1.18-7c-1.39-2.44-3.32-2.76-5.2-4.49a18.33,18.33,0,0,1-1.38-2.06,9.89,9.89,0,0,1-1.3-5c-.08-1.57,0-3.16,0-4.73V13.1l-2.1,2.1H69.75l-2.1-2.1c0,4.7.23,9.46,0,14.16a10.82,10.82,0,0,1-1.3,5.35c-1.43,2.38-.6,1.46-2.47,2.59a11,11,0,0,0-5.49,9.09c-.24,2.69,4,2.68,4.2,0,.44-4.93,5.11-5.73,7.38-9.55A15.17,15.17,0,0,0,71.85,27c.1-4.63,0-9.28,0-13.91a2.13,2.13,0,0,0-2.1-2.1H46.41a2.13,2.13,0,0,0-2.1,2.1c0,4.87-.18,9.78,0,14.65a13.7,13.7,0,0,0,4,9.69c.77.72,1.78,1.16,2.41,1.68,4.8,4,2.67,10.87-3.62,11.37-2.66.21-2.74,4.2,0,4.2H69c2.73,0,2.66-4,0-4.2-3.64-.29-6.14-2.51-6.45-6.22C62.38,41.6,58.18,41.58,58.4,44.28Z" fill="#133547"/></svg>